# xmcd
# 
# Track frame offsets:
#     150
#     14375
#     30415
#     44435
#     59600
#     75071
#     91622
#     107212
#     121409
#     136721
#     154732
#     171171
#     189048
#     209906
#     226205
#     246965
#     261263
#     276752
# 
# Disc length: 4100
# 
# Revision: 2
# Processed by: cddbd v1.5.2PL0 Copyright (c) Steve Scherf et al.
# Submitted via: fre:ac v1.0.31
# 
DISCID=e8100212
DTITLE=The Jayhawks - Tomorrow the Green Grass Legacy Edition Disc 1
DYEAR=2010
DGENRE=Rock/Pop
TTITLE0=Blue
TTITLE1=I'd Run Away
TTITLE2=Miss Williams' Guitar
TTITLE3=Two Hearts
TTITLE4=Real Light
TTITLE5=Over My Shoulder
TTITLE6=Bad Time
TTITLE7=See Him on the Street
TTITLE8=Nothing Left to Borrow
TTITLE9=Ann Jane
TTITLE10=Pray for Me
TTITLE11=Red's Song
TTITLE12=Ten Little Kids
TTITLE13=Tomorrow the Green Grass [B-side]
TTITLE14=You and I (Ba-Ba-Ba)
TTITLE15=Sweet Hobo Self
TTITLE16=Last Cigarette [B-side]
TTITLE17=Sleep While You Can
EXTD=
EXTT0=
EXTT1=
EXTT2=
EXTT3=
EXTT4=
EXTT5=
EXTT6=
EXTT7=
EXTT8=
EXTT9=
EXTT10=
EXTT11=
EXTT12=
EXTT13=
EXTT14=
EXTT15=
EXTT16=
EXTT17=
PLAYORDER=
